<svg width="25" height="25" viewBox="0 0 25 25" fill="none" xmlns="http://www.w3.org/2000/svg">
<path d="M12.5 5C8.35786 5 5 8.35786 5 12.5C5 16.6421 8.35786 20 12.5 20C16.6421 20 20 16.6421 20 12.5C20 8.35786 16.6421 5 12.5 5ZM12.5 6.49965C13.8934 6.49965 15.1605 6.99494 16.1786 7.79237C15.7053 8.20071 14.6881 8.97523 13.1335 9.7095C12.5604 8.69785 11.8856 7.67246 11.0791 6.68735C11.5369 6.57562 12.0084 6.49965 12.5 6.49965ZM9.94936 7.08831C10.4035 7.70536 11.1505 8.79852 11.9388 10.1938C10.2551 10.7458 8.30964 10.7642 6.80451 10.6433C7.32178 9.07227 8.46802 7.78871 9.94936 7.08831ZM12.4194 11.0727C12.63 11.4755 12.8378 11.9095 13.0429 12.3499C9.89896 13.0392 8.4268 15.1029 7.83813 16.2344C7.01325 15.2072 6.49962 13.92 6.49962 12.5C6.49962 12.2345 6.52341 11.9754 6.5573 11.72C7.74017 11.8839 9.83398 11.9479 12.4194 11.0727ZM13.5629 13.5602C14.1241 14.9316 14.6167 16.4175 14.9042 17.9913C14.1672 18.3145 13.356 18.5004 12.5 18.5004C11.0763 18.5004 9.78638 17.9831 8.75732 17.1555C10.2469 15.0845 11.9736 14.0399 13.5629 13.5602ZM15.9781 17.3734C15.9021 16.944 15.5744 15.339 14.798 13.2846C16.6153 13.0154 18.0573 13.3707 18.4106 13.4732C18.1461 15.0772 17.2479 16.4652 15.9781 17.3734ZM14.3448 12.164C14.1269 11.6577 13.8925 11.1404 13.6188 10.6076C14.7046 10.1379 15.8582 9.49613 17.0529 8.63372C17.9428 9.68018 18.5004 11.0187 18.5004 12.5C16.9 12.1448 15.5304 12.067 14.3448 12.164Z" fill="#454545"/>
</svg>
