<svg width="25" height="25" viewBox="0 0 25 25" fill="none" xmlns="http://www.w3.org/2000/svg">
<path d="M9.5 20C10.88 20 12 18.88 12 17.5V15H9.5C8.12 15 7 16.12 7 17.5C7 18.88 8.12 20 9.5 20Z" fill="#454545"/>
<path d="M7 12.5C7 11.12 8.12 10 9.5 10H12V15H9.5C8.12 15 7 13.88 7 12.5Z" fill="#454545"/>
<path d="M7 7.5C7 6.12 8.12 5 9.5 5H12V10H9.5C8.12 10 7 8.88 7 7.5Z" fill="#454545"/>
<path d="M12 5H14.5C15.88 5 17 6.12 17 7.5C17 8.88 15.88 10 14.5 10L12 10V5Z" fill="#454545"/>
<path d="M17 12.5C17 13.88 15.88 15 14.5 15C13.12 15 12 13.88 12 12.5C12 11.12 13.12 10 14.5 10C15.88 10 17 11.12 17 12.5Z" fill="#454545"/>
</svg>
