<svg width="25" height="25" viewBox="0 0 25 25" fill="none" xmlns="http://www.w3.org/2000/svg">
<path d="M12.5 5C8.35815 5 5 8.44305 5 12.6896C5 16.0876 7.14875 18.9693 10.1292 19.9859C10.5042 20.0563 10.641 19.8188 10.641 19.6161C10.641 19.433 10.6342 18.8266 10.6305 18.1846C8.54492 18.6492 8.10409 17.2778 8.10409 17.2778C7.76261 16.3898 7.27142 16.1533 7.27142 16.1533C6.58981 15.6765 7.32312 15.6858 7.32312 15.6858C8.07614 15.7393 8.47259 16.4781 8.47259 16.4781C9.14185 17.6533 10.2286 17.3135 10.6552 17.1164C10.7234 16.6208 10.9175 16.281 11.1313 16.0895C9.4664 15.8952 7.715 15.2353 7.715 12.2888C7.715 11.4487 8.00751 10.7634 8.48633 10.2251C8.40988 10.0299 8.1517 9.24748 8.56048 8.18914C8.56048 8.18914 9.18945 7.98263 10.6232 8.97763C11.221 8.80632 11.8623 8.72184 12.5 8.71902C13.1372 8.72184 13.779 8.80725 14.3777 8.97856C15.8087 7.98263 16.4386 8.19007 16.4386 8.19007C16.8488 9.24936 16.5906 10.0308 16.5137 10.2251C16.9943 10.7634 17.2845 11.4487 17.2845 12.2888C17.2845 15.2428 15.5304 15.8933 13.8596 16.0838C14.1297 16.3223 14.3686 16.7897 14.3686 17.5069C14.3686 18.5347 14.3585 19.3636 14.3585 19.617C14.3585 19.8216 14.4949 20.061 14.8749 19.9859C17.8531 18.9674 20 16.0857 20 12.6896C20 8.44305 16.6418 5 12.5 5Z" fill="#454545"/>
</svg>
