<svg width="25" height="25" viewBox="0 0 25 25" fill="none" xmlns="http://www.w3.org/2000/svg">
<path d="M18.3333 6H6.66667C6.22464 6 5.80072 6.18061 5.48816 6.5021C5.17559 6.82359 5 7.25963 5 7.71429V16.2857C5 16.7404 5.17559 17.1764 5.48816 17.4979C5.80072 17.8194 6.22464 18 6.66667 18H18.3333C18.7754 18 19.1993 17.8194 19.5118 17.4979C19.8244 17.1764 20 16.7404 20 16.2857V7.71429C20 7.25963 19.8244 6.82359 19.5118 6.5021C19.1993 6.18061 18.7754 6 18.3333 6ZM18.3333 9.42857L12.5 13.7143L6.66667 9.42857V7.71429L12.5 12L18.3333 7.71429V9.42857Z" fill="#454545"/>
</svg>
