<svg width="1490" height="411" viewBox="0 0 1490 411" fill="none" xmlns="http://www.w3.org/2000/svg">
<path d="M128.338 257.024L198.333 106.264C202.18 97.9787 196.13 88.5 186.996 88.5H47.0043C37.8697 88.5 31.82 97.9787 35.6667 106.264L105.662 257.024C110.142 266.672 123.858 266.672 128.338 257.024Z" stroke="white" stroke-width="35"/>
<path d="M1384.34 257.024L1454.33 106.264C1458.18 97.9787 1452.13 88.5 1443 88.5H1303C1293.87 88.5 1287.82 97.9787 1291.67 106.264L1361.66 257.024C1366.14 266.672 1379.86 266.672 1384.34 257.024Z" stroke="white" stroke-width="35"/>
<path d="M238.6 281C236.6 281 234.9 280.3 233.5 278.9C232.1 277.5 231.4 275.8 231.4 273.8V78.2C231.4 76.2 232.1 74.5 233.5 73.1C234.9 71.7 236.6 71 238.6 71H266.8C269 71 270.7 71.7 271.9 73.1C273.3 74.5 274 76.2 274 78.2V273.8C274 275.8 273.3 277.5 271.9 278.9C270.7 280.3 269 281 266.8 281H238.6ZM328.248 281C326.248 281 324.548 280.3 323.148 278.9C321.748 277.5 321.048 275.8 321.048 273.8V78.5C321.048 76.3 321.748 74.5 323.148 73.1C324.548 71.7 326.248 71 328.248 71H354.648C356.848 71 358.648 71.7 360.048 73.1C361.448 74.5 362.148 76.3 362.148 78.5V148.7L429.948 76.4C430.748 75.4 432.048 74.3 433.848 73.1C435.848 71.7 438.448 71 441.648 71H471.348C472.948 71 474.348 71.6 475.548 72.8C476.948 74 477.648 75.5 477.648 77.3C477.648 78.7 477.248 79.9 476.448 80.9L393.948 171.5L482.148 270.8C483.148 272 483.648 273.3 483.648 274.7C483.648 276.5 482.948 278 481.548 279.2C480.348 280.4 478.948 281 477.348 281H446.448C443.048 281 440.348 280.3 438.348 278.9C436.548 277.3 435.348 276.2 434.748 275.6L362.148 196.1V273.8C362.148 275.8 361.448 277.5 360.048 278.9C358.648 280.3 356.848 281 354.648 281H328.248ZM563.999 281C561.999 281 560.299 280.3 558.899 278.9C557.499 277.5 556.799 275.8 556.799 273.8V107.9H501.299C499.299 107.9 497.599 107.2 496.199 105.8C494.799 104.4 494.099 102.7 494.099 100.7V78.5C494.099 76.3 494.799 74.5 496.199 73.1C497.599 71.7 499.299 71 501.299 71H654.299C656.499 71 658.299 71.7 659.699 73.1C661.099 74.5 661.799 76.3 661.799 78.5V100.7C661.799 102.7 661.099 104.4 659.699 105.8C658.299 107.2 656.499 107.9 654.299 107.9H599.099V273.8C599.099 275.8 598.399 277.5 596.999 278.9C595.599 280.3 593.799 281 591.599 281H563.999ZM769.131 284C751.331 284 736.031 281.1 723.231 275.3C710.431 269.3 700.431 260.2 693.231 248C686.031 235.6 682.131 220.2 681.531 201.8C681.331 193.2 681.231 184.7 681.231 176.3C681.231 167.9 681.331 159.3 681.531 150.5C682.131 132.3 686.131 117.1 693.531 104.9C700.931 92.7 711.031 83.5 723.831 77.3C736.831 71.1 751.931 68 769.131 68C786.331 68 801.431 71.1 814.431 77.3C827.431 83.5 837.631 92.7 845.031 104.9C852.431 117.1 856.431 132.3 857.031 150.5C857.431 159.3 857.631 167.9 857.631 176.3C857.631 184.7 857.431 193.2 857.031 201.8C856.431 220.2 852.531 235.6 845.331 248C838.131 260.2 828.031 269.3 815.031 275.3C802.231 281.1 786.931 284 769.131 284ZM769.131 249.5C782.131 249.5 792.731 245.7 800.931 238.1C809.131 230.3 813.531 217.7 814.131 200.3C814.531 191.5 814.731 183.4 814.731 176C814.731 168.4 814.531 160.3 814.131 151.7C813.731 140.1 811.531 130.7 807.531 123.5C803.731 116.1 798.531 110.8 791.931 107.6C785.331 104.2 777.731 102.5 769.131 102.5C760.731 102.5 753.231 104.2 746.631 107.6C740.031 110.8 734.731 116.1 730.731 123.5C726.931 130.7 724.831 140.1 724.431 151.7C724.231 160.3 724.131 168.4 724.131 176C724.131 183.4 724.231 191.5 724.431 200.3C725.031 217.7 729.431 230.3 737.631 238.1C745.831 245.7 756.331 249.5 769.131 249.5ZM904.225 281C902.225 281 900.525 280.3 899.125 278.9C897.725 277.5 897.025 275.8 897.025 273.8V78.5C897.025 76.3 897.725 74.5 899.125 73.1C900.525 71.7 902.225 71 904.225 71H981.925C1006.13 71 1025.23 76.6 1039.23 87.8C1053.23 99 1060.23 115.3 1060.23 136.7C1060.23 151.5 1056.53 163.8 1049.13 173.6C1041.93 183.4 1032.23 190.5 1020.03 194.9L1063.83 271.4C1064.43 272.6 1064.73 273.7 1064.73 274.7C1064.73 276.5 1064.03 278 1062.63 279.2C1061.43 280.4 1060.03 281 1058.43 281H1031.13C1027.73 281 1025.13 280.1 1023.33 278.3C1021.53 276.5 1020.13 274.7 1019.13 272.9L980.425 201.8H938.725V273.8C938.725 275.8 938.025 277.5 936.625 278.9C935.425 280.3 933.725 281 931.525 281H904.225ZM938.725 167.9H981.025C993.225 167.9 1002.33 165.2 1008.33 159.8C1014.33 154.2 1017.33 146.4 1017.33 136.4C1017.33 126.4 1014.33 118.6 1008.33 113C1002.53 107.2 993.425 104.3 981.025 104.3H938.725V167.9ZM1178.99 284C1161.19 284 1145.89 281.1 1133.09 275.3C1120.29 269.3 1110.29 260.2 1103.09 248C1095.89 235.6 1091.99 220.2 1091.39 201.8C1091.19 193.2 1091.09 184.7 1091.09 176.3C1091.09 167.9 1091.19 159.3 1091.39 150.5C1091.99 132.3 1095.99 117.1 1103.39 104.9C1110.79 92.7 1120.89 83.5 1133.69 77.3C1146.69 71.1 1161.79 68 1178.99 68C1196.19 68 1211.29 71.1 1224.29 77.3C1237.29 83.5 1247.49 92.7 1254.89 104.9C1262.29 117.1 1266.29 132.3 1266.89 150.5C1267.29 159.3 1267.49 167.9 1267.49 176.3C1267.49 184.7 1267.29 193.2 1266.89 201.8C1266.29 220.2 1262.39 235.6 1255.19 248C1247.99 260.2 1237.89 269.3 1224.89 275.3C1212.09 281.1 1196.79 284 1178.99 284ZM1178.99 249.5C1191.99 249.5 1202.59 245.7 1210.79 238.1C1218.99 230.3 1223.39 217.7 1223.99 200.3C1224.39 191.5 1224.59 183.4 1224.59 176C1224.59 168.4 1224.39 160.3 1223.99 151.7C1223.59 140.1 1221.39 130.7 1217.39 123.5C1213.59 116.1 1208.39 110.8 1201.79 107.6C1195.19 104.2 1187.59 102.5 1178.99 102.5C1170.59 102.5 1163.09 104.2 1156.49 107.6C1149.89 110.8 1144.59 116.1 1140.59 123.5C1136.79 130.7 1134.69 140.1 1134.29 151.7C1134.09 160.3 1133.99 168.4 1133.99 176C1133.99 183.4 1134.09 191.5 1134.29 200.3C1134.89 217.7 1139.29 230.3 1147.49 238.1C1155.69 245.7 1166.19 249.5 1178.99 249.5Z" fill="white"/>
</svg>
