<svg width="80" height="80" viewBox="0 0 80 80" fill="none" xmlns="http://www.w3.org/2000/svg">
<path d="M40 20C28.9542 20 20 28.9542 20 40C20 51.0458 28.9542 60 40 60C51.0458 60 60 51.0458 60 40C60 28.9542 51.0458 20 40 20ZM40 23.999C43.7158 23.999 47.0946 25.3198 49.8096 27.4464C48.5474 28.5352 45.835 30.6006 41.6894 32.5586C40.161 29.861 38.3618 27.1266 36.2108 24.4996C37.4316 24.2016 38.689 23.999 40 23.999ZM33.1982 25.5688C34.4092 27.2142 36.4014 30.1294 38.5034 33.85C34.0136 35.3222 28.8258 35.371 24.812 35.0488C26.1914 30.8594 29.248 27.4366 33.1982 25.5688ZM39.7852 36.1938C40.3468 37.268 40.9008 38.4252 41.4476 39.5996C33.064 41.438 29.1382 46.941 27.5684 49.9586C25.3686 47.2192 23.999 43.7866 23.999 40C23.999 39.292 24.0624 38.601 24.1528 37.92C27.3072 38.357 32.8906 38.5278 39.7852 36.1938ZM42.8344 42.8272C44.331 46.4844 45.6446 50.4468 46.411 54.6436C44.4458 55.5054 42.2826 56.001 40 56.001C36.2036 56.001 32.7636 54.6218 30.0196 52.4146C33.9918 46.8922 38.5962 44.1064 42.8344 42.8272ZM49.275 52.9956C49.0722 51.8506 48.1982 47.5708 46.128 42.0924C50.9742 41.3746 54.8194 42.3218 55.7618 42.5954C55.0562 46.8726 52.661 50.5738 49.275 52.9956ZM44.9194 39.104C44.3384 37.754 43.7134 36.3744 42.9834 34.9536C45.879 33.7012 48.9552 31.9896 52.1412 29.69C54.5142 32.4804 56.001 36.0498 56.001 40C51.7334 39.0528 48.081 38.8452 44.9194 39.104Z" fill="white"/>
</svg>
