<svg width="80" height="80" viewBox="0 0 80 80" fill="none" xmlns="http://www.w3.org/2000/svg">
<path d="M38.5 52C38.5 54.3728 36.3749 56.5 33.5 56.5C30.6251 56.5 28.5 54.3728 28.5 52C28.5 49.6272 30.6251 47.5 33.5 47.5H38.5V52Z" stroke="white" stroke-width="3"/>
<path d="M28.5 39.5C28.5 36.7404 30.7404 34.5 33.5 34.5H38.5V44.5H33.5C30.7404 44.5 28.5 42.2596 28.5 39.5Z" stroke="white" stroke-width="3"/>
<path d="M28.5 27C28.5 24.6272 30.6251 22.5 33.5 22.5H38.5V31.5H33.5C30.6251 31.5 28.5 29.3728 28.5 27Z" stroke="white" stroke-width="3"/>
<path d="M41.5 22.5H46.5C49.3749 22.5 51.5 24.6272 51.5 27C51.5 29.3728 49.3749 31.5 46.5 31.5H41.5V22.5Z" stroke="white" stroke-width="3"/>
<path d="M51.5 39.5C51.5 42.2596 49.2596 44.5 46.5 44.5C43.7404 44.5 41.5 42.2596 41.5 39.5C41.5 36.7404 43.7404 34.5 46.5 34.5C49.2596 34.5 51.5 36.7404 51.5 39.5Z" stroke="white" stroke-width="3"/>
</svg>
