<svg width="80" height="80" viewBox="0 0 80 80" fill="none" xmlns="http://www.w3.org/2000/svg">
<path d="M40 20C28.9551 20 20 29.1815 20 40.5056C20 49.5669 25.73 57.2515 33.678 59.9624C34.6777 60.1501 35.0427 59.5168 35.0427 58.9761C35.0427 58.488 35.0244 56.871 35.0146 55.1589C29.4531 56.3979 28.2776 52.7409 28.2776 52.7409C27.367 50.3729 26.0571 49.7421 26.0571 49.7421C24.2395 48.4705 26.195 48.4956 26.195 48.4956C28.203 48.6382 29.2602 50.6082 29.2602 50.6082C31.0449 53.7421 33.9429 52.836 35.0805 52.3103C35.2623 50.9887 35.7799 50.0826 36.3501 49.5719C31.9104 49.0538 27.24 47.2941 27.24 39.4367C27.24 37.1964 28.02 35.3692 29.2969 33.9336C29.093 33.413 28.4045 31.3266 29.4946 28.5044C29.4946 28.5044 31.1719 27.9537 34.9951 30.607C36.5893 30.1502 38.2995 29.9249 40 29.9174C41.6992 29.9249 43.4106 30.1527 45.0073 30.6095C48.8232 27.9537 50.5029 28.5069 50.5029 28.5069C51.5967 31.3316 50.9082 33.4155 50.7031 33.9336C51.9848 35.3692 52.7588 37.1965 52.7588 39.4367C52.7588 47.3141 48.0811 49.0487 43.6255 49.5569C44.3457 50.1927 44.9829 51.4392 44.9829 53.3516C44.9829 56.0926 44.9561 58.3028 44.9561 58.9787C44.9561 59.5243 45.3198 60.1626 46.333 59.9624C54.2749 57.2465 60 49.5619 60 40.5056C60 29.1815 51.0449 20 40 20Z" fill="white"/>
</svg>
